<svg width="38" height="40" viewBox="0 0 38 40" fill="none" xmlns="http://www.w3.org/2000/svg">
<path d="M34.7857 30.5499C34.7857 31.1499 34.659 31.7666 34.3898 32.3666C34.1207 32.9666 33.7723 33.5333 33.3132 34.0666C32.5373 34.9666 31.6823 35.6166 30.7165 36.0333C29.7665 36.4499 28.7373 36.6666 27.629 36.6666C26.014 36.6666 24.2882 36.2666 22.4673 35.4499C20.6465 34.6333 18.8257 33.5333 17.0207 32.1499C15.1998 30.7499 13.474 29.1999 11.8273 27.4833C10.1965 25.7499 8.724 23.9333 7.40984 22.0333C6.1115 20.1333 5.0665 18.2333 4.3065 16.3499C3.5465 14.4499 3.1665 12.6333 3.1665 10.8999C3.1665 9.76659 3.3565 8.68325 3.7365 7.68325C4.1165 6.66659 4.71817 5.73325 5.55734 4.89992C6.57067 3.84992 7.679 3.33325 8.85067 3.33325C9.294 3.33325 9.73734 3.43325 10.1332 3.63325C10.5448 3.83325 10.909 4.13325 11.194 4.56659L14.8673 10.0166C15.1523 10.4333 15.3582 10.8166 15.5007 11.1833C15.6432 11.5333 15.7223 11.8833 15.7223 12.1999C15.7223 12.5999 15.6115 12.9999 15.3898 13.3833C15.184 13.7666 14.8832 14.1666 14.5032 14.5666L13.2998 15.8833C13.1257 16.0666 13.0465 16.2833 13.0465 16.5499C13.0465 16.6833 13.0623 16.7999 13.094 16.9333C13.1415 17.0666 13.189 17.1666 13.2207 17.2666C13.5057 17.8166 13.9965 18.5333 14.6932 19.3999C15.4057 20.2666 16.1657 21.1499 16.989 22.0333C17.844 22.9166 18.6673 23.7333 19.5065 24.4833C20.3298 25.2166 21.0107 25.7166 21.549 26.0166C21.6282 26.0499 21.7232 26.0999 21.834 26.1499C21.9607 26.1999 22.0873 26.2166 22.2298 26.2166C22.499 26.2166 22.7048 26.1166 22.879 25.9333L24.0823 24.6833C24.4782 24.2666 24.8582 23.9499 25.2223 23.7499C25.5865 23.5166 25.9507 23.3999 26.3465 23.3999C26.6473 23.3999 26.964 23.4666 27.3123 23.6166C27.6607 23.7666 28.0248 23.9833 28.4207 24.2666L33.6615 28.1833C34.0732 28.4833 34.3582 28.8333 34.5323 29.2499C34.6907 29.6666 34.7857 30.0833 34.7857 30.5499Z" fill="white"/>
</svg>
