<svg width="62" height="54" viewBox="0 0 62 54" fill="none" xmlns="http://www.w3.org/2000/svg">
<rect width="61.2692" height="54" fill="white"/>
<path d="M56.1636 36.4275C56.1636 44.6175 50.6239 49.5 41.3314 49.5H38.2935C36.8894 49.5 35.7406 48.4875 35.7406 47.25V34.2675C35.7406 33.66 36.3022 33.1425 36.9915 33.1425L41.4846 33.075C41.842 33.0525 42.1483 32.8275 42.2249 32.5125L43.1184 28.215C43.195 27.81 42.8376 27.4275 42.3525 27.4275L36.9149 27.495C36.2001 27.495 35.6385 27 35.613 26.3925L35.5108 20.88C35.5108 20.52 35.8427 20.205 36.2767 20.205L42.4036 20.115C42.8376 20.115 43.1695 19.8225 43.1695 19.44L43.0673 14.04C43.0673 13.6575 42.7355 13.365 42.3015 13.365L35.4087 13.455C31.1709 13.5225 27.8011 16.5825 27.8777 20.3175L28.0053 26.505C28.0309 27.135 27.4693 27.63 26.7544 27.6525L23.691 27.6975C23.257 27.6975 22.9251 27.99 22.9251 28.3725L23.0017 32.6475C23.0017 33.03 23.3335 33.3225 23.7675 33.3225L26.831 33.2775C27.5458 33.2775 28.1074 33.7725 28.1329 34.38L28.3627 47.205C28.3882 48.465 27.2394 49.5 25.8098 49.5H19.9382C10.6457 49.5 5.10596 44.6175 5.10596 36.405V17.5725C5.10596 9.38249 10.6457 4.5 19.9382 4.5H41.3314C50.6239 4.5 56.1636 9.38249 56.1636 17.5725V36.4275V36.4275Z" fill="#171717"/>
</svg>
