<svg width="59" height="54" viewBox="0 0 59 54" fill="none" xmlns="http://www.w3.org/2000/svg">
<rect width="59" height="54" fill="white"/>
<path d="M7.375 14.75C7.375 10.9788 7.375 9.09315 8.54657 7.92157C9.71815 6.75 11.6038 6.75 15.375 6.75H43.625C47.3962 6.75 49.2819 6.75 50.4534 7.92157C51.625 9.09315 51.625 10.9788 51.625 14.75V39.25C51.625 43.0212 51.625 44.9069 50.4534 46.0784C49.2819 47.25 47.3962 47.25 43.625 47.25H15.375C11.6038 47.25 9.71815 47.25 8.54657 46.0784C7.375 44.9069 7.375 43.0212 7.375 39.25V14.75Z" stroke="#222222" stroke-width="2"/>
<ellipse cx="40.5625" cy="16.875" rx="3.6875" ry="3.375" fill="#222222"/>
<path d="M38.3332 27C38.3332 31.3368 34.4635 35 29.4998 35C24.5361 35 20.6665 31.3368 20.6665 27C20.6665 22.6632 24.5361 19 29.4998 19C34.4635 19 38.3332 22.6632 38.3332 27Z" stroke="#222222" stroke-width="2"/>
</svg>
