<svg width="71" height="54" viewBox="0 0 71 54" fill="none" xmlns="http://www.w3.org/2000/svg">
<path d="M50.2915 7.875H20.7082C11.8332 7.875 5.9165 11.25 5.9165 19.125V34.875C5.9165 42.75 11.8332 46.125 20.7082 46.125H50.2915C59.1665 46.125 65.0832 42.75 65.0832 34.875V19.125C65.0832 11.25 59.1665 7.875 50.2915 7.875ZM51.6819 21.5775L42.4223 27.2025C40.4698 28.395 37.9848 28.98 35.4998 28.98C33.0148 28.98 30.5003 28.395 28.5773 27.2025L19.3178 21.5775C18.3711 20.9925 18.2232 19.9125 18.9628 19.1925C19.7319 18.4725 21.1223 18.3375 22.069 18.9225L31.3286 24.5475C33.5769 25.92 37.3932 25.92 39.6415 24.5475L48.9011 18.9225C49.8478 18.3375 51.2678 18.45 52.0073 19.1925C52.7765 19.9125 52.6286 20.9925 51.6819 21.5775Z" fill="white"/>
</svg>
