<svg width="1427" height="95" viewBox="0 0 1427 95" fill="none" xmlns="http://www.w3.org/2000/svg">
<g filter="url(#filter0_d_25_200)">
<path d="M44.6398 84.3333C65.1369 84.3333 81.8396 67.1216 81.8396 46C81.8396 24.8783 65.1369 7.66663 44.6398 7.66663C24.1427 7.66663 7.43997 24.8783 7.43997 46C7.43997 67.1216 24.1427 84.3333 44.6398 84.3333ZM34.261 43.9683L47.3926 30.4366C47.9506 29.8616 48.6574 29.5933 49.3642 29.5933C50.071 29.5933 50.7778 29.8616 51.3358 30.4366C52.4145 31.5483 52.4145 33.3883 51.3358 34.5L40.1758 46L51.3358 57.5C52.4145 58.6116 52.4145 60.4516 51.3358 61.5633C50.257 62.675 48.4714 62.675 47.3926 61.5633L34.261 48.0316C33.145 46.92 33.145 45.08 34.261 43.9683Z" fill="#29292A"/>
<path d="M44.6398 84.3333C65.1369 84.3333 81.8396 67.1216 81.8396 46C81.8396 24.8783 65.1369 7.66663 44.6398 7.66663C24.1427 7.66663 7.43997 24.8783 7.43997 46C7.43997 67.1216 24.1427 84.3333 44.6398 84.3333ZM34.261 43.9683L47.3926 30.4366C47.9506 29.8616 48.6574 29.5933 49.3642 29.5933C50.071 29.5933 50.7778 29.8616 51.3358 30.4366C52.4145 31.5483 52.4145 33.3883 51.3358 34.5L40.1758 46L51.3358 57.5C52.4145 58.6116 52.4145 60.4516 51.3358 61.5633C50.257 62.675 48.4714 62.675 47.3926 61.5633L34.261 48.0316C33.145 46.92 33.145 45.08 34.261 43.9683Z" stroke="#1E1E1E" stroke-width="3"/>
</g>
<g filter="url(#filter1_d_25_200)">
<path d="M1381.64 8.6667C1361.14 8.6667 1344.44 25.8784 1344.44 47C1344.44 68.1217 1361.14 85.3334 1381.64 85.3334C1402.14 85.3334 1418.84 68.1217 1418.84 47C1418.84 25.8784 1402.14 8.6667 1381.64 8.6667ZM1392.02 49.0317L1378.89 62.5634C1378.33 63.1384 1377.62 63.4067 1376.92 63.4067C1376.21 63.4067 1375.5 63.1384 1374.94 62.5634C1373.86 61.4517 1373.86 59.6117 1374.94 58.5L1386.1 47L1374.94 35.5C1373.86 34.3884 1373.86 32.5484 1374.94 31.4367C1376.02 30.325 1377.81 30.325 1378.89 31.4367L1392.02 44.9684C1393.13 46.08 1393.13 47.92 1392.02 49.0317Z" fill="#29292A"/>
<path d="M1381.64 8.6667C1361.14 8.6667 1344.44 25.8784 1344.44 47C1344.44 68.1217 1361.14 85.3334 1381.64 85.3334C1402.14 85.3334 1418.84 68.1217 1418.84 47C1418.84 25.8784 1402.14 8.6667 1381.64 8.6667ZM1392.02 49.0317L1378.89 62.5634C1378.33 63.1384 1377.62 63.4067 1376.92 63.4067C1376.21 63.4067 1375.5 63.1384 1374.94 62.5634C1373.86 61.4517 1373.86 59.6117 1374.94 58.5L1386.1 47L1374.94 35.5C1373.86 34.3884 1373.86 32.5484 1374.94 31.4367C1376.02 30.325 1377.81 30.325 1378.89 31.4367L1392.02 44.9684C1393.13 46.08 1393.13 47.92 1392.02 49.0317Z" stroke="#1E1E1E" stroke-width="3"/>
</g>
<defs>
<filter id="filter0_d_25_200" x="1.93994" y="6.16663" width="85.3997" height="87.6667" filterUnits="userSpaceOnUse" color-interpolation-filters="sRGB">
<feFlood flood-opacity="0" result="BackgroundImageFix"/>
<feColorMatrix in="SourceAlpha" type="matrix" values="0 0 0 0 0 0 0 0 0 0 0 0 0 0 0 0 0 0 127 0" result="hardAlpha"/>
<feOffset dy="4"/>
<feGaussianBlur stdDeviation="2"/>
<feComposite in2="hardAlpha" operator="out"/>
<feColorMatrix type="matrix" values="0 0 0 0 0 0 0 0 0 0 0 0 0 0 0 0 0 0 0.25 0"/>
<feBlend mode="normal" in2="BackgroundImageFix" result="effect1_dropShadow_25_200"/>
<feBlend mode="normal" in="SourceGraphic" in2="effect1_dropShadow_25_200" result="shape"/>
</filter>
<filter id="filter1_d_25_200" x="1338.94" y="7.1667" width="85.3997" height="87.6667" filterUnits="userSpaceOnUse" color-interpolation-filters="sRGB">
<feFlood flood-opacity="0" result="BackgroundImageFix"/>
<feColorMatrix in="SourceAlpha" type="matrix" values="0 0 0 0 0 0 0 0 0 0 0 0 0 0 0 0 0 0 127 0" result="hardAlpha"/>
<feOffset dy="4"/>
<feGaussianBlur stdDeviation="2"/>
<feComposite in2="hardAlpha" operator="out"/>
<feColorMatrix type="matrix" values="0 0 0 0 0 0 0 0 0 0 0 0 0 0 0 0 0 0 0.25 0"/>
<feBlend mode="normal" in2="BackgroundImageFix" result="effect1_dropShadow_25_200"/>
<feBlend mode="normal" in="SourceGraphic" in2="effect1_dropShadow_25_200" result="shape"/>
</filter>
</defs>
</svg>
